# xmcd
#
# Track frame offsets: 
#        217
#        15142
#        36260
#        62207
#        79587
#        93152
#
# Disc length: 1572 seconds
#
# Revision: 0
# Processed by: cddbd v1.5.1PL2 Copyright (c) Steve Scherf et al.
# Submitted via: ExactAudioCopy v0.95a5
#
DISCID=38062206
DTITLE=Alexyev - Mysteries Of Life
DYEAR=1900
DGENRE=Rhythmic Soul
TTITLE0=No Where To Run
TTITLE1=It's Been A Long Time
TTITLE2=My Lover's Eyes
TTITLE3=Hold On To Us
TTITLE4=Crazy Craven
TTITLE5=No Where To Run (Instrumental)
EXTD=
EXTT0=
EXTT1=
EXTT2=
EXTT3=
EXTT4=
EXTT5=
PLAYORDER=
